<?xml version="1.0" encoding="UTF-8" standalone="no"?>
<!-- Created with Inkscape (http://www.inkscape.org/) -->

<svg
   xmlns:dc="http://purl.org/dc/elements/1.1/"
   xmlns:cc="http://creativecommons.org/ns#"
   xmlns:rdf="http://www.w3.org/1999/02/22-rdf-syntax-ns#"
   xmlns:svg="http://www.w3.org/2000/svg"
   xmlns="http://www.w3.org/2000/svg"
   xmlns:sodipodi="http://sodipodi.sourceforge.net/DTD/sodipodi-0.dtd"
   xmlns:inkscape="http://www.inkscape.org/namespaces/inkscape"
   width="256"
   height="256"
   viewBox="0 0 256 256"
   id="svg2"
   version="1.1"
   inkscape:version="0.92.2 (5c3e80d, 2017-08-06)"
   sodipodi:docname="treeline-icon.svg"
   inkscape:export-filename="treeline-icon.png"
   inkscape:export-xdpi="18"
   inkscape:export-ydpi="18">
  <defs
     id="defs4" />
  <sodipodi:namedview
     id="base"
     pagecolor="#ffffff"
     bordercolor="#666666"
     borderopacity="1.0"
     inkscape:pageopacity="0.0"
     inkscape:pageshadow="2"
     inkscape:zoom="2.8284271"
     inkscape:cx="160.62248"
     inkscape:cy="99.788708"
     inkscape:document-units="px"
     inkscape:current-layer="layer1"
     showgrid="false"
     units="px"
     borderlayer="true"
     inkscape:showpageshadow="false"
     inkscape:window-width="1920"
     inkscape:window-height="1028"
     inkscape:window-x="0"
     inkscape:window-y="33"
     inkscape:window-maximized="1" />
  <metadata
     id="metadata7">
    <rdf:RDF>
      <cc:Work
         rdf:about="">
        <dc:format>image/svg+xml</dc:format>
        <dc:type
           rdf:resource="http://purl.org/dc/dcmitype/StillImage" />
        <dc:title />
      </cc:Work>
    </rdf:RDF>
  </metadata>
  <g
     inkscape:groupmode="layer"
     id="layer2"
     inkscape:label="White lozenge bg"
     style="display:inline">
    <rect
       style="opacity:1;fill:#e1ebff;fill-opacity:1;stroke:none;stroke-width:12.41699982;stroke-linecap:butt;stroke-miterlimit:4;stroke-dasharray:none;stroke-opacity:1"
       id="rect4179"
       width="256"
       height="256"
       x="0"
       y="0"
       ry="68.932549" />
  </g>
  <g
     inkscape:label="T-L logo"
     inkscape:groupmode="layer"
     id="layer1"
     transform="translate(0,-796.36216)"
     style="display:inline">
    <flowRoot
       xml:space="preserve"
       id="flowRoot4140"
       style="font-style:normal;font-variant:normal;font-weight:normal;font-stretch:normal;line-height:0.01%;font-family:'Courier 10 Pitch';-inkscape-font-specification:'Courier 10 Pitch';letter-spacing:0px;word-spacing:0px;fill:#000000;fill-opacity:1;stroke:none;stroke-width:1px;stroke-linecap:butt;stroke-linejoin:miter;stroke-opacity:1"><flowRegion
         id="flowRegion4142"><rect
           id="rect4144"
           width="79.802048"
           height="91.923882"
           x="43.436558"
           y="-22.802103" /></flowRegion><flowPara
         id="flowPara4146"
         style="font-size:45px;line-height:1.25"> </flowPara></flowRoot>    <path
       inkscape:connector-curvature="0"
       id="path4167"
       d="m 131.35464,916.22809 0.17678,117.46981 c 0,0 25.63282,1.6311 37.68763,3.1253 12.05481,1.494 26.99873,5.4619 43.30277,-8.7159 -18.10834,4.2216 -17.74063,0.7099 -33.28728,-4.8674 -10.69894,-4.4041 -24.32414,-6.3201 -24.32414,-6.3201 l -0.17677,-81.45346 c -0.005,-2.28399 0.40468,-7.58774 0.77212,-8.92469 1.79228,-4.74501 3.10825,-7.55349 11.14797,-10.31356 z"
       style="font-style:normal;font-variant:normal;font-weight:bold;font-stretch:normal;font-size:90px;line-height:125%;font-family:'Noto Serif';-inkscape-font-specification:'Noto Serif Bold';letter-spacing:0px;word-spacing:0px;fill:#6c3a16;fill-opacity:1;stroke:none;stroke-width:1px;stroke-linecap:butt;stroke-linejoin:miter;stroke-opacity:1"
       sodipodi:nodetypes="cczcccsccc" />
    <path
       style="opacity:1;fill:none;fill-rule:evenodd;stroke:#4ba000;stroke-width:22;stroke-linecap:butt;stroke-linejoin:miter;stroke-miterlimit:4;stroke-dasharray:none;stroke-opacity:1"
       d="m 211.78862,929.85073 c -0.0767,29.9148 -15.91539,37.2999 -30.80319,39.3945"
       id="path4202"
       inkscape:connector-curvature="0"
       sodipodi:nodetypes="cc" />
    <path
       style="opacity:1;fill:none;fill-rule:evenodd;stroke:#4ba000;stroke-width:22;stroke-linecap:butt;stroke-linejoin:miter;stroke-miterlimit:4;stroke-dasharray:none;stroke-opacity:1"
       d="M 52.386492,974.45824 C 36.808442,964.43075 31.025204,946.66736 31.510952,930.13742"
       id="path4188"
       inkscape:connector-curvature="0"
       sodipodi:nodetypes="cc" />
    <path
       style="opacity:1;fill:none;fill-rule:evenodd;stroke:#4ba000;stroke-width:22;stroke-linecap:butt;stroke-linejoin:miter;stroke-miterlimit:4;stroke-dasharray:none;stroke-opacity:1"
       d="m 33.38647,891.06296 c 2.698106,-63.07234 63.583373,-37.15732 63.583373,-37.15732 0,0 16.658177,-42.4456 58.749187,-35.648 28.77531,6.1708 53.25407,29.57832 54.28581,72.52523"
       id="path4186"
       inkscape:connector-curvature="0"
       sodipodi:nodetypes="cccc" />
    <g
       transform="matrix(1.2739361,0,0,0.82279382,-10.888684,1.767767)"
       style="font-style:normal;font-variant:normal;font-weight:normal;font-stretch:normal;font-size:61.96141815px;line-height:125%;font-family:'Courier 10 Pitch';-inkscape-font-specification:'Courier 10 Pitch';letter-spacing:0px;word-spacing:0px;fill:#6c3b16;fill-opacity:1;stroke:none;stroke-width:1px;stroke-linecap:butt;stroke-linejoin:miter;stroke-opacity:1"
       id="text4136">
      <path
         d="m 100.46913,1255.1688 c 0,0 -25.290105,2.4447 -36.729503,6.0998 8.092163,-9.1799 16.51135,-14.0348 18.919614,-27.1946 l -0.445555,-133.4819 -17.141115,0.2149 c -3.711105,0.046 -5.846021,0.8331 -8.347068,1.6399 -2.501047,0.8068 -4.916347,2.554 -7.183407,4.906 -2.26706,2.352 -3.678264,5.2012 -5.357758,8.8834 -2.329285,7.929 -1.611314,4.4343 -2.563074,12.5462 l -16.904258,-0.6446 1.469966,-48.1517 155.800138,0.3038 1.30831,47.8924 -17.16774,0.063 c -1.81572,-12.979 -1.39228,-11.9344 -3.82337,-17.798 -2.43109,-5.8636 -4.26583,-6.1696 -7.19645,-7.9407 -3.77662,-1.8703 -7.78484,-2.2832 -11.49594,-2.2367 l -42.87414,0.5371 c 0.45284,56.0477 -0.0851,106.9994 -0.0981,154.5766 z"
         style="font-style:normal;font-variant:normal;font-weight:bold;font-stretch:normal;font-size:247.84567261px;font-family:'Noto Serif';-inkscape-font-specification:'Noto Serif Bold';fill:#6c3b16;fill-opacity:1"
         id="path4161"
         inkscape:connector-curvature="0"
         sodipodi:nodetypes="ccccsszccccccczcsccc" />
    </g>
  </g>
</svg>
